<svg width="23" height="29" viewBox="0 0 23 29" fill="none" xmlns="http://www.w3.org/2000/svg">
<path d="M22.0924 20.1686H6.82488L7.59146 18.0995L20.3285 18.0689C20.7592 18.0689 21.1284 17.6612 21.2053 17.0972L22.9692 4.01352C23.0154 3.67037 22.9462 3.31703 22.7769 3.04863C22.6933 2.91654 22.589 2.81013 22.4712 2.7368C22.3535 2.66347 22.2251 2.62496 22.095 2.62395L5.89165 2.5526L5.75321 1.68964C5.66604 1.13925 5.29172 0.738342 4.86612 0.738342H0.905027C0.664999 0.738342 0.434802 0.864698 0.265076 1.08961C0.0953508 1.31453 0 1.61958 0 1.93765C0 2.25573 0.0953508 2.56078 0.265076 2.7857C0.434802 3.01061 0.664999 3.13697 0.905027 3.13697H4.13287L4.73793 6.94894L6.22751 16.5061L4.30978 20.6544C4.21019 20.8325 4.1502 21.044 4.13661 21.265C4.12301 21.4859 4.15636 21.7075 4.23286 21.9047C4.38669 22.309 4.69691 22.5638 5.04046 22.5638H6.65054C6.30729 23.1679 6.12189 23.9038 6.12239 24.66C6.12239 26.583 7.30175 28.1458 8.75287 28.1458C10.204 28.1458 11.3833 26.583 11.3833 24.66C11.3833 23.9024 11.1936 23.1651 10.8552 22.5638H14.9855C14.6423 23.1679 14.4569 23.9038 14.4574 24.66C14.4574 26.583 15.6367 28.1458 17.0878 28.1458C18.539 28.1458 19.7183 26.583 19.7183 24.66C19.7183 23.9024 19.5286 23.1651 19.1902 22.5638H22.095C22.5924 22.5638 23 22.027 23 21.3645C22.9985 21.0467 22.9023 20.7427 22.7322 20.5186C22.5622 20.2946 22.3322 20.1687 22.0924 20.1686ZM6.26853 4.91725L21.031 4.9818L19.585 15.7111L7.98885 15.7382L6.26853 4.91725ZM8.75287 25.7336C8.30677 25.7336 7.9427 25.2512 7.9427 24.66C7.9427 24.0689 8.30677 23.5864 8.75287 23.5864C9.19897 23.5864 9.56304 24.0689 9.56304 24.66C9.56304 24.9448 9.47768 25.2178 9.32574 25.4192C9.17381 25.6205 8.96774 25.7336 8.75287 25.7336ZM17.0878 25.7336C16.6417 25.7336 16.2777 25.2512 16.2777 24.66C16.2777 24.0689 16.6417 23.5864 17.0878 23.5864C17.5339 23.5864 17.898 24.0689 17.898 24.66C17.898 24.9448 17.8126 25.2178 17.6607 25.4192C17.5088 25.6205 17.3027 25.7336 17.0878 25.7336Z" fill="black"/>
</svg>
