<svg width="16" height="24" viewBox="0 0 16 24" fill="none" xmlns="http://www.w3.org/2000/svg">
<path d="M11.7429 15.5802C12.7112 13.6742 13.1449 11.3111 12.9572 8.9637C12.7695 6.61626 11.9743 4.4576 10.7307 2.91959C9.48702 1.38159 7.88665 0.577658 6.24974 0.668641C4.61282 0.759624 3.06008 1.73881 1.90217 3.4103C0.74425 5.08179 0.0665484 7.32232 0.00464654 9.68363C-0.0572553 12.0449 0.501207 14.3529 1.56831 16.1458C2.63541 17.9386 4.13244 19.0842 5.75992 19.3532C7.3874 19.6223 9.02528 18.995 10.3459 17.5968H10.3449C10.3749 17.6545 10.4069 17.7094 10.4429 17.7627L14.2929 23.3164C14.4804 23.587 14.7348 23.7392 15.0001 23.7393C15.2653 23.7394 15.5198 23.5876 15.7074 23.3171C15.895 23.0466 16.0005 22.6797 16.0006 22.297C16.0007 21.9144 15.8954 21.5473 15.7079 21.2767L11.8579 15.723C11.8222 15.6708 11.7837 15.6226 11.7429 15.5788V15.5802ZM12.0009 10.0353C12.0009 11.0771 11.8586 12.1088 11.5822 13.0714C11.3058 14.0339 10.9007 14.9086 10.39 15.6453C9.87927 16.382 9.27295 16.9664 8.60566 17.3651C7.93837 17.7638 7.22317 17.969 6.5009 17.969C5.77863 17.969 5.06343 17.7638 4.39614 17.3651C3.72885 16.9664 3.12253 16.382 2.61181 15.6453C2.10109 14.9086 1.69596 14.0339 1.41956 13.0714C1.14316 12.1088 1.0009 11.0771 1.0009 10.0353C1.0009 7.9311 1.58036 5.91312 2.61181 4.42525C3.64326 2.93739 5.04221 2.10151 6.5009 2.10151C7.95959 2.10151 9.35854 2.93739 10.39 4.42525C11.4214 5.91312 12.0009 7.9311 12.0009 10.0353Z" fill="black"/>
</svg>
